HIERARCHY
ROOT hip
{
  OFFSET 0 0 0
  CHANNELS 6 Xposition Yposition Zposition Zrotation Yrotation Xrotation
  JOINT abdomen
  {
    OFFSET 0 20.6881 -0.73152
    CHANNELS 3 Zrotation Xrotation Yrotation
    JOINT chest
    {
      OFFSET 0 11.7043 -0.48768
      CHANNELS 3 Zrotation Xrotation Yrotation
      JOINT neck
      {
        OFFSET 0 22.1894 -2.19456
        CHANNELS 3 Zrotation Xrotation Yrotation
        JOINT head
        {
          OFFSET -0.24384 7.07133 1.2192
          CHANNELS 3 Zrotation Xrotation Yrotation
          JOINT leftEye
          {
            OFFSET 4.14528 8.04674 8.04672
            CHANNELS 3 Zrotation Xrotation Yrotation
            End Site
            {
              OFFSET 1 0 0
            }
          }
          JOINT rightEye
          {
            OFFSET -3.6576 8.04674 8.04672
            CHANNELS 3 Zrotation Xrotation Yrotation
            End Site
            {
              OFFSET 1 0 0
            }
          }
        }
      }
      JOINT rCollar
      {
        OFFSET -2.68224 19.2634 -4.8768
        CHANNELS 3 Zrotation Xrotation Yrotation
        JOINT rShldr
        {
          OFFSET -8.77824 -1.95073 1.46304
          CHANNELS 3 Zrotation Xrotation Yrotation
          JOINT rForeArm
          {
            OFFSET -28.1742 -1.7115 0.48768
            CHANNELS 3 Zrotation Xrotation Yrotation
            JOINT rHand
            {
              OFFSET -22.5879 0.773209 7.07136
              CHANNELS 3 Zrotation Xrotation Yrotation
              JOINT rThumb1
              {
                OFFSET -1.2192 -0.487915 3.41376
                CHANNELS 3 Zrotation Xrotation Yrotation
                JOINT rThumb2
                {
                  OFFSET -3.37035 -0.52449 3.41376
                  CHANNELS 3 Zrotation Xrotation Yrotation
                  End Site
                  {
                    OFFSET -1.78271 -1.18214 1.43049
                  }
                }
              }
              JOINT rIndex1
              {
                OFFSET -7.75947 0.938293 5.60832
                CHANNELS 3 Zrotation Xrotation Yrotation
                JOINT rIndex2
                {
                  OFFSET -2.54057 -0.884171 1.56538
                  CHANNELS 3 Zrotation Xrotation Yrotation
                  End Site
                  {
                    OFFSET -1.62519 -0.234802 1.16502
                  }
                }
              }
              JOINT rMid1
              {
                OFFSET -8.24714 1.18213 3.41376
                CHANNELS 3 Zrotation Xrotation Yrotation
                JOINT rMid2
                {
                  OFFSET -3.10165 -0.590103 1.0647
                  CHANNELS 3 Zrotation Xrotation Yrotation
                  End Site
                  {
                    OFFSET -2.48547 -0.328903 0.83742
                  }
                }
              }
              JOINT rRing1
              {
                OFFSET -8.82822 0.546677 1.51678
                CHANNELS 3 Zrotation Xrotation Yrotation
                JOINT rRing2
                {
                  OFFSET -2.60934 -0.819778 -0.0198488
                  CHANNELS 3 Zrotation Xrotation Yrotation
                  End Site
                  {
                    OFFSET -2.33842 -0.294052 0.168128
                  }
                }
              }
              JOINT rPinky1
              {
                OFFSET -8.27202 -0.0477905 -0.4584
                CHANNELS 3 Zrotation Xrotation Yrotation
                JOINT rPinky2
                {
                  OFFSET -1.82734 -0.647385 -0.700984
                  CHANNELS 3 Zrotation Xrotation Yrotation
                  End Site
                  {
                    OFFSET -1.69225 -0.51767 -0.607171
                  }
                }
              }
            }
          }
        }
      }
      JOINT lCollar
      {
        OFFSET 2.68224 19.2634 -4.8768
        CHANNELS 3 Zrotation Xrotation Yrotation
        JOINT lShldr
        {
          OFFSET 8.77824 -1.95073 1.46304
          CHANNELS 3 Zrotation Xrotation Yrotation
          JOINT lForeArm
          {
            OFFSET 28.1742 -1.7115 0.48768
            CHANNELS 3 Zrotation Xrotation Yrotation
            JOINT lHand
            {
              OFFSET 22.5879 0.773209 7.07136
              CHANNELS 3 Zrotation Xrotation Yrotation
              JOINT lThumb1
              {
                OFFSET 1.2192 -0.487915 3.41376
                CHANNELS 3 Zrotation Xrotation Yrotation
                JOINT lThumb2
                {
                  OFFSET 3.37035 -0.52449 3.41376
                  CHANNELS 3 Zrotation Xrotation Yrotation
                  End Site
                  {
                    OFFSET 1.78271 -1.18214 1.43049
                  }
                }
              }
              JOINT lIndex1
              {
                OFFSET 7.75947 0.938293 5.60832
                CHANNELS 3 Zrotation Xrotation Yrotation
                JOINT lIndex2
                {
                  OFFSET 2.54057 -0.884171 1.56538
                  CHANNELS 3 Zrotation Xrotation Yrotation
                  End Site
                  {
                    OFFSET 1.62519 -0.234802 1.16502
                  }
                }
              }
              JOINT lMid1
              {
                OFFSET 8.24714 1.18213 3.41376
                CHANNELS 3 Zrotation Xrotation Yrotation
                JOINT lMid2
                {
                  OFFSET 3.10165 -0.590103 1.0647
                  CHANNELS 3 Zrotation Xrotation Yrotation
                  End Site
                  {
                    OFFSET 2.48547 -0.328903 0.83742
                  }
                }
              }
              JOINT lRing1
              {
                OFFSET 8.82822 0.546677 1.51678
                CHANNELS 3 Zrotation Xrotation Yrotation
                JOINT lRing2
                {
                  OFFSET 2.60934 -0.819778 -0.0198488
                  CHANNELS 3 Zrotation Xrotation Yrotation
                  End Site
                  {
                    OFFSET 2.33842 -0.294052 0.168128
                  }
                }
              }
              JOINT lPinky1
              {
                OFFSET 8.27202 -0.0477905 -0.4584
                CHANNELS 3 Zrotation Xrotation Yrotation
                JOINT lPinky2
                {
                  OFFSET 1.82734 -0.647385 -0.700984
                  CHANNELS 3 Zrotation Xrotation Yrotation
                  End Site
                  {
                    OFFSET 1.69225 -0.51767 -0.607171
                  }
                }
              }
            }
          }
        }
      }
    }
  }
  JOINT rButtock
  {
    OFFSET -8.77824 4.35084 1.2192
    CHANNELS 3 Zrotation Xrotation Yrotation
    JOINT rThigh
    {
      OFFSET 0 -1.70687 -2.19456
      CHANNELS 3 Zrotation Xrotation Yrotation
      JOINT rShin
      {
        OFFSET 0 -36.8199 0.73152
        CHANNELS 3 Zrotation Xrotation Yrotation
        JOINT rFoot
        {
          OFFSET 0.73152 -45.1104 -5.12064
          CHANNELS 3 Zrotation Xrotation Yrotation
          End Site
          {
            OFFSET -1.1221 -3.69964 12.103
          }
        }
      }
    }
  }
  JOINT lButtock
  {
    OFFSET 8.77824 4.35084 1.2192
    CHANNELS 3 Zrotation Xrotation Yrotation
    JOINT lThigh
    {
      OFFSET 0 -1.70687 -2.19456
      CHANNELS 3 Zrotation Xrotation Yrotation
      JOINT lShin
      {
        OFFSET 0 -36.8199 0.73152
        CHANNELS 3 Zrotation Xrotation Yrotation
        JOINT lFoot
        {
          OFFSET -0.73152 -45.1104 -5.12064
          CHANNELS 3 Zrotation Xrotation Yrotation
          End Site
          {
            OFFSET 1.1221 -3.69964 12.103
          }
        }
      }
    }
  }
}
MOTION
Frames:	4
Frame Time:	0.03333
0.0 0.0 0.0 0.0 0.0 0.0 0.0 0.0 0.0 0.0 0.0 0.0 0.0 0.0 0.0 0.0 0.0 0.0 0.0 0.0 0.0 0.0 0.0 0.0 0.0 0.0 0.0 0.0 0.0 0.0 0.0 0.0 0.0 0.0 0.0 0.0 0.0 0.0 0.0 0.0 0.0 0.0 0.0 0.0 0.0 0.0 0.0 0.0 0.0 0.0 0.0 0.0 0.0 0.0 0.0 0.0 0.0 0.0 0.0 0.0 0.0 0.0 0.0 0.0 0.0 0.0 0.0 0.0 0.0 0.0 0.0 0.0 0.0 0.0 0.0 0.0 0.0 0.0 0.0 0.0 0.0 0.0 0.0 0.0 0.0 0.0 0.0 0.0 0.0 0.0 0.0 0.0 0.0 0.0 0.0 0.0 0.0 0.0 0.0 0.0 0.0 0.0 0.0 0.0 0.0 0.0 0.0 0.0 0.0 0.0 0.0 0.0 0.0 0.0 0.0 0.0 0.0 0.0 0.0 0.0 0.0 0.0 0.0 0.0 0.0 0.0 0.0 0.0 0.0 0.0 0.0 0.0
4.6695 0.2929 -0.3575 160.515022 -48.634785 140.90354 63.075857 40.497565 0.0 -166.610054 11.38337 -62.786613 -1.124908 -34.418175 -159.261907 -41.811826 -17.104502 -38.246322 -37.337122 -12.8913 36.977165 -10.346836 0.878427 -9.679263 -176.176239 50.595848 -52.14705 124.556255 70.745216 113.726677 -133.070947 -7.838616 -60.392453 -127.233496 -33.367551 16.238055 155.372261 51.82893 -50.716266 -80.857974 77.364193 -58.144344 -176.905445 78.08165 -8.699842 -66.077258 24.222488 -178.878857 121.362052 75.968398 75.683687 19.068444 -6.232652 114.933206 158.169976 -24.722155 171.062718 -67.496058 71.792668 -111.459904 -161.274385 -21.865999 -50.296765 -34.527775 -66.373581 132.670853 22.774746 59.334426 107.013326 153.103778 11.05714 -48.838838 161.354318 -51.634232 2.542691 -132.058062 -39.990474 89.021039 -93.968242 11.010023 -31.333288 -144.246388 9.759677 114.992343 169.923686 59.491015 86.611144 99.894769 -1.232511 132.3584 -48.327818 -16.291909 63.946222 88.764782 75.9647 161.175413 -165.363419 -11.498735 -34.284764 -64.151205 44.572908 -106.748444 53.161666 -36.332874 -49.526802 30.370992 1.675925 173.555688 15.648151 4.606747 -22.32088 -142.672533 -13.207937 95.809922 -93.930237 11.289084 22.052378 110.567317 0.55565 145.9064 -109.910735 14.556137 -24.944851 -132.658981 -32.670935 63.553772 -111.982483 54.043783 -167.767792 -33.327484 -29.711541 170.570983
7.1927 0.26489999999999997 -0.24359999999999998 163.884488 -56.480425 137.476114 54.734005 32.14983 56.54871 -177.825935 21.304166 -1.494997 5.262636 -51.046995 99.013195 55.298076 -22.05539 96.313092 -38.216836 -11.938106 33.587898 -16.824627 2.06414 -13.890642 163.166559 24.924085 -41.797848 54.89327 8.285828 149.226805 69.987312 -59.82699 -84.851976 -84.594921 14.885569 -127.196591 -8.309469 -36.701001 158.411134 67.292725 -53.291317 -101.962828 74.425653 69.825436 101.535881 62.942779 87.640811 38.941192 156.073797 58.093555 34.313423 -164.961613 -18.609009 30.362453 -114.238267 47.846461 79.869697 50.708496 4.262221 170.763591 99.578663 -4.395129 -123.588888 39.128024 32.551438 159.155087 -150.537792 -34.33881 95.360442 -93.626428 -16.500525 74.603094 -1.809848 72.270836 -177.174533 -169.558326 31.825899 60.961716 -17.132045 -2.990595 -63.95858 -152.081295 38.277646 78.32991 -113.368046 -12.13731 80.902622 169.785231 76.877254 -34.242359 -113.408489 59.734658 57.984548 -14.428085 1.405273 -114.765291 89.340206 -76.156152 -81.731571 -22.575204 -57.718496 142.550793 -158.052808 7.539495 -166.306928 -97.383704 -9.382654 141.768941 17.643771 1.505715 -24.607113 -143.930679 -10.491226 -80.489091 102.944703 -17.109331 101.089241 -156.919325 48.26209 31.968928 79.197951 61.889279 15.245387 104.034527 -59.93422 9.492504 102.69366 -52.87968 -114.565494 -79.670801 15.830448 48.838296
9.8137 0.2235 -0.0107 160.160171 -63.358305 138.165263 47.5636 30.730208 55.104034 -176.698483 23.941863 1.962513 -27.605096 -42.769795 -133.916453 -62.232744 5.462526 -40.474514 -40.180742 -11.14519 29.872384 -19.147316 2.548241 -15.024152 176.744139 39.960938 -42.08143 -135.535095 28.025447 15.871965 -57.106388 -79.254145 51.136599 -65.577898 -46.181916 95.062045 171.287217 60.186519 -72.663449 -139.275357 -4.066866 -123.909337 174.889792 -66.931695 -53.290726 -67.420166 28.912459 -73.333476 21.164397 -21.920575 138.663624 41.486097 41.633154 -136.076897 -23.567844 -55.118795 25.04239 1.931799 -0.876923 164.878539 79.280498 25.25942 -144.352456 18.672011 -10.103307 -170.112069 16.702584 55.800591 112.304666 -96.61024 29.184974 -117.36096 -17.14364 -4.844666 -167.051178 14.392924 79.487782 -142.440534 -11.104149 -12.435546 -65.069792 -27.016023 -10.562716 158.537796 147.761289 62.325038 101.520296 -83.223969 16.404045 128.08949 35.676312 -51.094491 139.455736 -4.286802 8.482103 111.478668 -171.025143 6.491114 -32.780821 -25.712416 7.835773 -136.396015 37.240694 -51.376736 -45.037485 -115.387775 -44.401033 -17.554778 5.094975 7.454332 -34.498262 -137.373923 -14.266132 75.011089 -90.511997 1.387211 114.975085 -178.479713 68.07658 -43.875792 -91.178849 15.571485 -3.710117 -150.650799 -19.743138 109.769337 -112.367995 61.312702 14.816206 60.781351 39.675973 -44.861633
